<svg width="96" height="28" viewBox="0 0 96 28" fill="none" xmlns="http://www.w3.org/2000/svg">
<path d="M9.15483 10.6378C9.09801 10.0649 8.85417 9.61979 8.4233 9.30256C7.99242 8.98532 7.40767 8.8267 6.66903 8.8267C6.16714 8.8267 5.74337 8.89773 5.39773 9.03977C5.05208 9.17708 4.78693 9.36884 4.60227 9.61506C4.42235 9.86127 4.33239 10.1406 4.33239 10.4531C4.32292 10.7135 4.37737 10.9408 4.49574 11.1349C4.61884 11.3291 4.78693 11.4972 5 11.6392C5.21307 11.7765 5.45928 11.8973 5.73864 12.0014C6.01799 12.1009 6.31629 12.1861 6.63352 12.2571L7.94034 12.5696C8.57481 12.7116 9.1572 12.901 9.6875 13.1378C10.2178 13.3745 10.6771 13.6657 11.0653 14.0114C11.4536 14.357 11.7543 14.7642 11.9673 15.233C12.1851 15.7017 12.2964 16.2391 12.3011 16.8452C12.2964 17.7353 12.0691 18.5071 11.6193 19.1605C11.1742 19.8092 10.5303 20.3134 9.6875 20.6733C8.84943 21.0284 7.83854 21.206 6.65483 21.206C5.48059 21.206 4.45786 21.026 3.58665 20.6662C2.72017 20.3063 2.04309 19.7737 1.5554 19.0682C1.07244 18.358 0.819129 17.4796 0.795455 16.4332H3.77131C3.80445 16.9209 3.94413 17.3281 4.19034 17.6548C4.44129 17.9768 4.77509 18.2206 5.19176 18.3864C5.61316 18.5473 6.08902 18.6278 6.61932 18.6278C7.14015 18.6278 7.59233 18.5521 7.97585 18.4006C8.36411 18.2491 8.66477 18.0384 8.87784 17.7685C9.09091 17.4986 9.19744 17.1884 9.19744 16.8381C9.19744 16.5114 9.10038 16.2367 8.90625 16.0142C8.71686 15.7917 8.4375 15.6023 8.06818 15.446C7.7036 15.2898 7.25616 15.1477 6.72585 15.0199L5.14205 14.6222C3.91572 14.3239 2.94744 13.8575 2.23722 13.223C1.52699 12.5885 1.17424 11.7339 1.17898 10.6591C1.17424 9.77841 1.40862 9.009 1.8821 8.35085C2.36032 7.69271 3.0161 7.17898 3.84943 6.80966C4.68277 6.44034 5.62973 6.25568 6.69034 6.25568C7.76989 6.25568 8.71212 6.44034 9.51705 6.80966C10.3267 7.17898 10.9564 7.69271 11.4062 8.35085C11.8561 9.009 12.0881 9.77131 12.1023 10.6378H9.15483ZM16.5543 17.8608L16.5614 14.2315H17.0018L20.4961 10.0909H23.9691L19.2745 15.5739H18.5572L16.5543 17.8608ZM13.8129 21V6.45455H16.8384V21H13.8129ZM20.631 21L17.4208 16.2486L19.4379 14.1108L24.1751 21H20.631ZM24.9535 21V10.0909H27.979V21H24.9535ZM26.4734 8.68466C26.0236 8.68466 25.6377 8.53551 25.3157 8.23722C24.9985 7.93419 24.8398 7.57197 24.8398 7.15057C24.8398 6.7339 24.9985 6.37642 25.3157 6.07812C25.6377 5.77509 26.0236 5.62358 26.4734 5.62358C26.9232 5.62358 27.3067 5.77509 27.6239 6.07812C27.9459 6.37642 28.1069 6.7339 28.1069 7.15057C28.1069 7.57197 27.9459 7.93419 27.6239 8.23722C27.3067 8.53551 26.9232 8.68466 26.4734 8.68466ZM34.8743 21.2131C33.7521 21.2131 32.7862 20.9858 31.9766 20.5312C31.1716 20.072 30.5514 19.4233 30.1158 18.5852C29.6802 17.7424 29.4624 16.7457 29.4624 15.5952C29.4624 14.473 29.6802 13.4882 30.1158 12.6406C30.5514 11.7931 31.1645 11.1326 31.9553 10.6591C32.7507 10.1856 33.6835 9.94886 34.7536 9.94886C35.4732 9.94886 36.1432 10.0649 36.7635 10.2969C37.3885 10.5241 37.933 10.8674 38.397 11.3267C38.8658 11.786 39.2304 12.3636 39.4908 13.0597C39.7512 13.7509 39.8814 14.5606 39.8814 15.4886V16.3196H30.6697V14.4446H37.0334C37.0334 14.009 36.9387 13.6231 36.7493 13.2869C36.5599 12.9508 36.2971 12.688 35.9609 12.4986C35.6295 12.3045 35.2436 12.2074 34.8033 12.2074C34.344 12.2074 33.9368 12.3139 33.5817 12.527C33.2313 12.7353 32.9567 13.017 32.7578 13.3722C32.5589 13.7225 32.4571 14.1132 32.4524 14.544V16.3267C32.4524 16.8665 32.5518 17.3329 32.7507 17.7259C32.9543 18.1188 33.2408 18.4219 33.6101 18.6349C33.9794 18.848 34.4174 18.9545 34.924 18.9545C35.2602 18.9545 35.5679 18.9072 35.8473 18.8125C36.1267 18.7178 36.3658 18.5758 36.5646 18.3864C36.7635 18.197 36.915 17.965 37.0192 17.6903L39.8175 17.875C39.6754 18.5473 39.3842 19.1345 38.9439 19.6364C38.5083 20.1335 37.9448 20.5218 37.2536 20.8011C36.567 21.0758 35.7739 21.2131 34.8743 21.2131ZM46.3274 21.2131C45.2053 21.2131 44.2393 20.9858 43.4297 20.5312C42.6248 20.072 42.0045 19.4233 41.5689 18.5852C41.1333 17.7424 40.9155 16.7457 40.9155 15.5952C40.9155 14.473 41.1333 13.4882 41.5689 12.6406C42.0045 11.7931 42.6177 11.1326 43.4084 10.6591C44.2038 10.1856 45.1366 9.94886 46.2067 9.94886C46.9264 9.94886 47.5964 10.0649 48.2166 10.2969C48.8416 10.5241 49.3861 10.8674 49.8501 11.3267C50.3189 11.786 50.6835 12.3636 50.9439 13.0597C51.2043 13.7509 51.3345 14.5606 51.3345 15.4886V16.3196H42.1229V14.4446H48.4865C48.4865 14.009 48.3918 13.6231 48.2024 13.2869C48.013 12.9508 47.7502 12.688 47.4141 12.4986C47.0826 12.3045 46.6967 12.2074 46.2564 12.2074C45.7971 12.2074 45.3899 12.3139 45.0348 12.527C44.6844 12.7353 44.4098 13.017 44.2109 13.3722C44.0121 13.7225 43.9103 14.1132 43.9055 14.544V16.3267C43.9055 16.8665 44.005 17.3329 44.2038 17.7259C44.4074 18.1188 44.6939 18.4219 45.0632 18.6349C45.4325 18.848 45.8705 18.9545 46.3771 18.9545C46.7133 18.9545 47.0211 18.9072 47.3004 18.8125C47.5798 18.7178 47.8189 18.5758 48.0178 18.3864C48.2166 18.197 48.3681 17.965 48.4723 17.6903L51.2706 17.875C51.1286 18.5473 50.8374 19.1345 50.397 19.6364C49.9614 20.1335 49.398 20.5218 48.7067 20.8011C48.0201 21.0758 47.227 21.2131 46.3274 21.2131Z" fill="#0052CC"/>
</svg>
